<?xml version="1.0" encoding="UTF-8" standalone="no"?>
<svg xmlns:inkscape="http://www.inkscape.org/namespaces/inkscape" xmlns:sodipodi="http://sodipodi.sourceforge.net/DTD/sodipodi-0.dtd" xmlns="http://www.w3.org/2000/svg" xmlns:svg="http://www.w3.org/2000/svg" version="1.1" x="0px" y="0px" viewBox="0 0 500 620" xml:space="preserve" id="svg28" sodipodi:docname="cliff.svg" width="500" height="620" inkscape:version="1.2.2 (b0a8486541, 2022-12-01)"><defs id="defs32"></defs>
<style type="text/css" id="style2">
	.st0{display:none;}
	.st1{display:inline;}
	.st2{fill:#2D2D2D;}
	.st3{fill:#3C3D3D;}
	.st4{fill:#131313;}
	.st5{fill:#FFFFFF;}
	.st6{fill:#FCFCFC;}
	.st7{fill:#2A2A2A;}
	.st8{fill:#565454;}
	.st9{fill:#767373;}
	.st10{fill:#959292;}
	.st11{fill:#C6C4C4;}
</style>
<path style="fill:#ffffff" d="m 87.342246,618.50973 43.815964,-41.27047 15.0925,-11.87926 8.37391,-10.71081 4.28432,-9.34762 7.88705,-7.30282 4.86855,1.46057 18.01363,0.29211 6.42649,-4.28432 7.01071,-3.7001 18.111,-1.94742 7.59494,-2.72639 27.94547,-17.62415 7.20545,-6.32911 8.37391,-7.88705 9.83447,-16.84518 6.62122,-8.27653 -3.1849,7.23208 -1.23933,13.77034 -22.2391,28.36689 0.27541,1.37703 9.08842,-5.92124 17.41948,-7.43598 3.78684,-7.64254 2.89177,-14.39 -1.03277,-12.80641 2.1344,-5.71469 7.16057,-6.67862 13.28838,-6.19665 34.15043,-16.3867 16.86867,-9.70809 14.73426,-4.1311 6.4032,-0.75737 16.249,-11.15397 23.61613,-12.531 29.33081,-18.3834 11.50573,-8.96117 -2.65828,0.50962 -22.65221,12.04905 -16.90309,-3.87291 -1.32539,-2.77128 -8.58925,-3.49422 -1.23933,-7.02288 -13.28837,1.03278 36.83565,-30.84555 0.99846,-2.78032 3.7001,-7.01071 10.71081,-5.45278 -10.51607,1.94742 -14.21616,0.77897 5.25803,-8.17916 -7.59493,-0.77897 -0.97371,-4.28432 22.78481,-12.07401 8.95813,-10.32132 34.85881,-32.13242 -1.75268,361.0516 z" id="path351" sodipodi:nodetypes="cccccccccccccccccccccccccccccccccccccccccccccccccccccccccc"></path><g id="back" class="st0" transform="translate(-160.76,-67.790928)">
	<rect x="1.17" y="0" class="st1" width="800" height="800" id="rect4"></rect>
</g>
<g id="Front" transform="translate(-154.13877,-63.94867)">
	<g id="g25">
		<path d="m 305.32,592.13 c -0.78,0.64 -1.55,1.3 -2.35,1.92 -1.42,1.11 -2.99,2.08 -4.26,3.32 -1.19,1.16 -0.79,1.61 0.58,2.49 2.79,1.79 4.72,3.94 3.14,7.98 -2.04,5.23 -3.66,10.49 -3.73,16.14 -0.03,2.03 -0.61,4.05 -1.02,6.62 1.27,-1.05 2.27,-1.69 3.02,-2.53 4.87,-5.42 8.69,-11.43 11.55,-18.06 0.78,-1.8 2.5,-3.27 3.96,-4.73 1.11,-1.11 2.7,-1.81 3.7,-3 1.1,-1.31 2.09,-1.01 3.39,-0.58 2.15,0.7 4.32,1.51 6.55,1.82 1.96,0.27 4.01,-0.07 6.02,-0.16 1.9,-0.09 3.81,-0.39 5.69,-0.27 2.35,0.15 4.03,-1 5.81,-2.13 2.79,-1.78 5.6,-3.53 8.45,-5.2 0.63,-0.37 1.48,-0.42 2.24,-0.53 3.98,-0.57 7.97,-1.11 11.96,-1.64 0.61,-0.08 1.24,-0.07 1.85,-0.03 4.81,0.31 8.68,-1.76 12.52,-4.21 4.89,-3.12 9.94,-6.01 14.97,-8.92 6.18,-3.58 12.36,-7.11 16.12,-13.39 0.98,-1.63 1.59,-1.71 3.59,-0.57 2.62,-3.2 5.51,-6.31 7.88,-9.74 2.18,-3.15 3.67,-6.73 5.73,-9.96 2.13,-3.34 4.61,-6.47 6.9,-9.71 0.66,-0.93 1.16,-1.95 1.82,-2.88 0.29,-0.41 0.78,-0.7 1.18,-1.04 0.18,0.12 0.36,0.24 0.53,0.35 -0.62,1.48 -1.3,2.95 -1.84,4.46 -0.41,1.14 -0.77,2.32 -0.92,3.51 -0.31,2.44 -0.76,4.92 -0.61,7.36 0.31,5.03 -2.15,8.9 -5.15,12.59 -4.07,5.01 -8.21,9.95 -12.3,14.94 -1.55,1.9 -3.05,3.84 -4.54,5.78 -0.34,0.45 -0.56,0.98 -0.61,1.61 1.98,-1.27 4.02,-2.47 5.92,-3.84 2.31,-1.68 4.91,-2.66 7.61,-3.62 2.98,-1.05 5.76,-2.6 8.64,-3.93 0.44,-0.2 0.96,-0.28 1.36,-0.54 0.81,-0.52 1.84,-0.96 2.29,-1.71 2.49,-4.11 3.91,-8.53 4.66,-13.28 0.47,-3.01 1.68,-5.97 1.15,-9.03 -0.63,-3.65 -0.54,-7.27 -0.27,-10.91 0.26,-3.48 1.65,-6.47 4.41,-8.85 3.9,-3.36 8.09,-6.31 12.94,-8.28 2.93,-1.19 6.01,-2.06 8.88,-3.36 5,-2.26 9.93,-4.67 14.83,-7.13 5.46,-2.74 10.88,-5.57 16.26,-8.46 0.58,-0.31 1.1,-1.21 1.14,-1.86 0.29,-5.04 0.57,-10.08 0.63,-15.12 0.04,-3.54 -0.3,-7.09 -0.43,-10.64 -0.11,-3.04 -0.14,-6.08 -0.26,-9.12 -0.09,-2.36 -0.28,-4.72 -0.39,-7.08 -0.12,-2.64 -0.22,-5.28 -0.26,-7.93 -0.01,-0.47 0.27,-0.95 0.71,-1.39 0.58,17.2 2.8,34.32 1.24,51.95 3,-1.74 5.57,-3.11 8.02,-4.68 3.38,-2.16 6.88,-3.98 10.87,-4.89 3.29,-0.75 6.53,-1.69 9.81,-2.48 0.8,-0.19 1.67,-0.19 2.51,-0.19 2.71,0 4.64,-1.63 6.69,-2.97 4.52,-2.96 8.9,-6.13 13.55,-8.88 4.51,-2.68 9.31,-4.91 13.94,-7.41 4.88,-2.64 9.78,-5.27 14.55,-8.08 2.99,-1.76 5.72,-3.91 8.65,-5.77 2.55,-1.62 5.25,-3.02 7.82,-4.62 2.05,-1.27 4.03,-2.65 5.97,-4.06 3.58,-2.59 7.11,-5.24 10.65,-7.88 0.25,-0.19 0.45,-0.44 0.67,-0.67 -0.08,-0.12 -0.15,-0.24 -0.23,-0.36 -3.71,1.98 -7.46,3.9 -11.12,5.97 -3.27,1.85 -6.33,4.06 -9.7,5.7 -1.4,0.68 -3.43,0.61 -5.07,0.33 -3.71,-0.62 -7.34,-1.74 -11.05,-2.37 -2.82,-0.48 -4.12,-1.4 -4.63,-3.8 -2.73,-1.13 -5.44,-1.84 -7.64,-3.28 -2.42,-1.59 -2.94,-4.3 -2.2,-7.43 -2.48,0.2 -4.65,0.22 -6.76,0.57 -3.71,0.61 -7.38,1.43 -11.08,2.09 -0.5,0.09 -1.09,-0.24 -1.63,-0.37 0.42,-0.32 0.79,-0.81 1.27,-0.95 6.31,-1.75 11.24,-5.45 15.6,-10.01 1.16,-1.21 2.7,-2.09 3.97,-3.22 3.37,-3 6.65,-6.1 10.05,-9.08 2.31,-2.02 4.69,-3.99 7.17,-5.82 2.83,-2.09 5.79,-4 8.72,-5.96 0.5,-0.33 1.07,-0.61 1.65,-0.76 7.11,-1.76 13.38,-5.13 19.02,-9.52 3.74,-2.91 7.22,-6.13 10.67,-9.35 1.84,-1.71 3.35,-3.76 5.07,-5.59 0.57,-0.6 1.36,-1.01 2.04,-1.51 0.13,0.15 0.26,0.3 0.39,0.46 -0.96,1.09 -1.91,2.18 -2.89,3.25 -4.06,4.46 -8.24,8.83 -13.2,12.37 -3.88,2.77 -7.91,5.41 -12.1,7.72 -2.99,1.65 -6.39,2.61 -9.56,4 -3.83,1.68 -7.2,4.04 -10.31,6.74 -4.61,4.01 -9.12,8.13 -13.78,12.08 -5.27,4.47 -10.67,8.81 -15.85,13.07 1.79,-0.29 3.92,-0.71 6.08,-0.97 1.72,-0.2 3.47,-0.24 5.21,-0.28 1.19,-0.03 1.65,0.49 1.51,1.74 -0.5,4.63 1.43,6.94 6.16,7.65 1.04,0.16 2.06,0.46 3.06,0.78 0.34,0.11 0.85,0.48 0.84,0.71 -0.21,2.76 2.06,3.09 3.94,3.58 3.34,0.86 6.73,1.52 10.1,2.26 0.93,0.21 1.85,0.44 3.24,0.77 2.12,-1.15 4.71,-2.6 7.35,-3.97 5.44,-2.83 10.91,-5.6 16.34,-8.45 1.37,-0.72 2.65,-1.6 3.9,-2.5 4.56,-3.32 9.08,-6.69 13.64,-9.99 0.36,-0.26 0.99,-0.18 1.5,-0.26 0.1,0.24 0.2,0.48 0.3,0.72 -1.17,0.85 -2.36,1.68 -3.52,2.54 -2.7,2 -5.41,3.99 -8.1,6.01 -5.29,3.98 -10.44,8.15 -15.88,11.92 -5.4,3.73 -11.11,7.04 -16.64,10.6 -2.37,1.52 -4.54,3.34 -6.93,4.82 -3.85,2.38 -7.77,4.69 -11.75,6.86 -5.45,2.98 -10.92,5.9 -16.49,8.66 -6.2,3.07 -11.7,7.11 -17.31,11.01 -2.27,1.58 -4.54,2.55 -7.53,2.57 -5.13,0.04 -10.05,1.66 -14.67,3.67 -3.96,1.72 -7.46,4.42 -11.42,6.12 -3.55,1.52 -3.94,4.21 -4.04,7.18 -0.13,3.91 -0.34,7.84 0.01,11.72 0.33,3.65 1.07,7.33 2.12,10.86 1.69,5.65 3.55,11.27 5.76,16.74 2.4,5.94 5.17,11.75 8.01,17.52 1.4,2.85 3.32,5.47 4.99,8.2 4.51,7.36 8.87,14.8 13.57,22.04 2.82,4.35 5.92,8.6 9.34,12.53 4,4.59 8.38,8.89 12.81,13.11 2,1.91 4.55,3.29 6.82,4.94 0.75,0.54 1.4,1.2 2.11,1.8 3.02,2.56 6.14,5.01 9.04,7.7 1.87,1.74 3.45,3.78 5.09,5.73 1.01,1.2 1.97,2.46 2.84,3.77 1.1,1.64 2.21,3.3 3.09,5.06 2.09,4.17 4.19,8.34 6,12.62 0.96,2.27 1.3,4.78 1.93,7.17 0.14,0.51 0.31,1.02 0.79,1.47 -0.33,-2.4 -0.63,-4.8 -1.01,-7.19 -0.76,-4.71 -1.48,-9.43 -2.37,-14.11 -0.76,-3.99 -1.33,-8.05 -3.45,-11.69 -2.88,-4.95 -6.61,-9.16 -11.5,-12.35 -1.78,-1.16 -3.73,-2.08 -5.58,-3.16 -0.32,-0.19 -0.51,-0.58 -0.77,-0.87 0.36,-0.26 0.7,-0.7 1.09,-0.75 0.53,-0.08 1.11,0.11 1.66,0.23 5.93,1.24 11.85,2.52 17.8,3.72 4.74,0.95 8.9,3.23 13.19,5.19 2.61,1.19 5.01,2.8 7.59,4.05 3.89,1.88 8.11,1.94 12.32,1.55 3.53,-0.33 6.89,0.28 10.25,1.13 0.54,0.14 1.07,0.33 1.62,0.46 1.91,0.45 2.21,0.85 2.16,2.81 -4.33,-1.91 -8.83,-3.48 -13.69,-3.01 -3.57,0.35 -7.03,0.34 -10.46,-0.64 -1.38,-0.39 -2.72,-0.98 -4.02,-1.59 -4.44,-2.07 -9,-3.97 -13.25,-6.36 -5.1,-2.86 -10.87,-2.99 -16.34,-4.33 -1.27,-0.31 -2.54,-0.61 -4.2,-1.02 2.11,1.73 4.05,3.02 5.6,4.65 2.55,2.68 4.98,5.49 7.23,8.4 3.02,3.9 3.27,8.69 4.16,13.24 0.59,3 1.13,6.01 1.56,9.03 0.62,4.46 1.14,8.94 1.65,13.41 0.17,1.49 0.16,3.01 0.24,4.61 -2.09,-0.24 -2,-1.85 -2.37,-2.84 -0.82,-2.22 -1.28,-4.56 -1.82,-6.87 -1.18,-5 -3.75,-9.44 -6.05,-13.98 -1,-1.98 -1.69,-4.19 -3.06,-5.9 -3.74,-4.65 -6.77,-9.89 -12.13,-13.24 -2.08,-1.3 -3.7,-3.26 -5.6,-4.84 -2.02,-1.68 -4.22,-3.17 -6.18,-4.92 -4.32,-3.86 -8.63,-7.73 -12.76,-11.77 -4.9,-4.79 -8.63,-10.46 -12.34,-16.09 -2.89,-4.39 -5.42,-9.01 -8.17,-13.49 -2.38,-3.88 -5,-7.63 -7.24,-11.57 -2.2,-3.88 -4.12,-7.92 -6.06,-11.93 -1.98,-4.08 -4.02,-8.15 -5.7,-12.34 -2.84,-7.09 -5.53,-14.2 -6.91,-21.78 -1.19,-6.52 -1.01,-12.95 -0.69,-19.45 0.02,-0.42 0.15,-0.84 0.28,-1.52 -3.67,1.86 -7.22,3.54 -10.65,5.42 -9.6,5.27 -19.4,10.08 -29.77,13.83 -5.28,1.91 -9.98,5.03 -13.6,9.16 -2.2,2.5 -3.21,5.86 -3.07,9.3 0.12,3.06 0.48,6.11 0.52,9.16 0.03,1.89 -0.24,3.79 -0.55,5.66 -0.46,2.79 -1.04,5.56 -1.66,8.33 -0.21,0.92 -0.64,1.81 -1.04,2.69 -0.76,1.66 -1.55,3.31 -2.37,4.95 -0.83,1.67 -2.08,2.79 -4.01,3.42 -2.79,0.92 -5.46,2.18 -8.21,3.25 -1.96,0.76 -4.14,1.17 -5.91,2.21 -4.54,2.68 -8.93,5.59 -12.25,9.73 -0.38,0.47 -0.94,0.82 -1.41,1.22 -0.2,-0.11 -0.4,-0.21 -0.6,-0.32 0.36,-0.93 0.57,-1.97 1.12,-2.78 1.6,-2.34 3.28,-4.64 5.03,-6.88 3.99,-5.13 8.01,-10.24 12.07,-15.32 1.6,-2 3.36,-3.88 4.99,-5.86 2.07,-2.53 3.45,-5.18 3.24,-8.65 -0.17,-3 0.54,-6.05 0.85,-9.07 0.04,-0.41 0.01,-0.83 0.01,-1.51 -2.64,2.52 -4.61,5.23 -6.03,8.27 -2.9,6.23 -6.57,11.96 -11.52,16.89 -2.19,2.19 -4.35,4.41 -6.62,6.71 -0.07,-0.51 -0.13,-0.99 -0.15,-1.12 -2.45,2.02 -4.91,4.37 -7.71,6.25 -3.52,2.37 -7.34,4.33 -10.99,6.53 -3.8,2.29 -7.6,4.58 -11.29,7.03 -3.35,2.22 -6.78,4.16 -10.91,4.6 -5.52,0.6 -11.07,1.03 -16.58,1.74 -3.22,0.41 -5.59,2.6 -8.2,4.25 -1.59,1.01 -3.05,2.28 -4.77,3 -1.18,0.5 -2.7,0.29 -4.07,0.35 -1.72,0.08 -3.44,0.19 -5.16,0.15 -3.34,-0.08 -6.68,-0.22 -10.02,-0.41 -0.43,-0.02 -0.83,-0.48 -1.23,-0.75 -1.55,-1 -2.48,-0.87 -3.85,0.35 -1.22,1.09 -2.53,2.09 -3.84,3.09 -2.27,1.73 -3.42,4.16 -4.47,6.62 -2.28,5.3 -5.54,10 -9.4,14.34 -4.33,4.87 -10.03,8.2 -15.07,12.27 -2.57,2.07 -4.88,4.43 -7.27,6.71 -3.03,2.89 -5.98,5.85 -9.02,8.73 -2.99,2.84 -6.06,5.62 -9.07,8.44 -0.29,0.28 -0.38,0.75 -0.65,1.06 -0.22,0.24 -0.58,0.35 -0.88,0.51 -0.12,-0.36 -0.44,-0.83 -0.31,-1.05 0.43,-0.69 0.96,-1.34 1.57,-1.89 4.6,-4.18 9.28,-8.27 13.81,-12.51 3.2,-2.99 6.06,-6.33 9.34,-9.23 3.15,-2.79 6.61,-5.27 10.04,-7.76 1.1,-0.8 1.54,-1.76 1.67,-2.91 0.5,-4.36 0.91,-8.72 1.4,-13.08 0.09,-0.78 0.37,-1.56 0.64,-2.31 0.85,-2.32 1.8,-4.61 2.6,-6.94 1.05,-3.07 0.22,-4.92 -2.87,-6.72 -2.19,-1.28 -2.47,-2.18 -0.72,-4.02 1.62,-1.71 3.56,-3.13 5.45,-4.76 -1.29,-0.35 -2.69,-0.73 -4.1,-1.1 -1.82,-0.48 -3.56,-0.86 -4.67,-2.75 -0.44,-0.76 -2.27,-0.84 -3.49,-1.11 -3.3,-0.74 -6.71,-1.16 -9.9,-2.2 -4.23,-1.37 -8.43,-1.81 -12.73,-0.83 -3.28,0.75 -6,-0.58 -8.56,-2.07 -2.75,-1.61 -5.18,-3.72 -7.83,-5.5 -2.27,-1.52 -4.67,-2.88 -7.31,-4.14 0.92,1.61 1.84,3.22 2.76,4.84 -1.78,-2.31 -3.98,-4.41 -4.34,-7.38 0.13,-0.07 0.26,-0.15 0.39,-0.22 1.21,0.85 2.38,1.75 3.63,2.54 3.04,1.92 6.14,3.74 9.16,5.7 1.47,0.96 2.68,2.31 4.21,3.16 2.52,1.41 5.15,2.52 8.29,1.7 1.64,-0.43 3.47,-0.67 5.13,-0.43 3.29,0.48 6.53,1.34 9.78,2.06 2.06,0.46 4.1,0.97 6.16,1.43 1.19,0.27 2.38,0.54 3.58,0.74 1.22,0.2 2.45,0.32 3.76,0.49 -0.1,0.27 -0.35,0.95 -0.68,1.86 2.69,0.85 5.71,1.81 8.73,2.77 0.07,0.21 0.11,0.4 0.16,0.59 z" id="path7"></path>
		<path d="m 231.66,457.87 c 1.14,-0.36 2.3,-0.68 3.43,-1.09 4.93,-1.81 10.02,-2.71 15.28,-3.35 5.4,-0.66 10.65,-2.43 15.97,-3.72 7.36,-1.78 14.7,-3.63 22.08,-5.32 2.11,-0.48 4.39,-0.28 6.47,-0.85 2.49,-0.67 4.86,-1.77 7.24,-2.78 4.76,-2.01 9.51,-4.03 14.21,-6.16 1.71,-0.78 3.28,-1.84 4.86,-2.86 2.23,-1.44 4.4,-2.96 6.59,-4.45 1.5,-1.02 2.98,-2.06 4.49,-3.06 0.21,-0.14 0.51,-0.15 0.9,-0.26 0.88,2.66 -0.06,4.9 -1.44,7.01 -1,1.54 -2.09,3.03 -3.27,4.45 -1.31,1.58 -2.78,3.04 -4.17,4.56 -0.99,1.08 -1.89,2.26 -2.96,3.25 -3.35,3.09 -6.76,6.12 -10.14,9.17 -0.23,0.21 -0.42,0.46 -0.85,0.95 4.81,-1.36 8.91,-3.29 12.68,-5.92 1.9,-1.33 3.78,-2.83 5.93,-3.65 2.18,-0.83 4.67,-0.56 6.81,0.58 3.02,1.62 5.96,3.39 8.92,5.1 0.18,0.1 0.29,0.31 0.42,0.47 1.58,1.95 1.46,1.82 3.32,0.26 2.27,-1.9 4.56,-3.97 7.23,-5.17 1.9,-0.85 4.58,-0.89 6.67,-0.38 3.8,0.93 7.41,2.57 11.12,3.85 3.03,1.04 6.12,1.94 9.15,2.98 4.77,1.64 9.56,3.24 14.26,5.06 3.62,1.4 7.01,3.38 10.68,4.62 3.57,1.2 7.32,2.05 11.06,2.57 6.3,0.88 12.66,1.39 19.01,2 1.44,0.14 2.91,0.02 4.52,0.02 0.22,1.21 -0.55,1.31 -1.43,1.25 -4.19,-0.28 -8.39,-0.43 -12.56,-0.9 -6,-0.68 -11.99,-1.45 -17.93,-2.49 -2.3,-0.41 -4.42,-1.69 -6.63,-2.56 -5.31,-2.08 -10.6,-4.22 -15.95,-6.2 -7.24,-2.68 -14.48,-5.35 -21.81,-7.78 -2.52,-0.83 -5.16,-2.07 -8.01,-1.15 -0.93,0.3 -1.89,0.65 -2.66,1.2 -2.41,1.72 -4.78,3.48 -7.07,5.34 -1.25,1.02 -2.1,0.35 -3.09,-0.29 -3.38,-2.18 -6.66,-4.53 -10.21,-6.41 -2.29,-1.21 -4.76,-1.16 -7.21,0.57 -3.04,2.15 -6.34,4.01 -9.72,5.64 -2.67,1.29 -5.64,2.03 -8.45,3.07 -0.96,0.36 -1.92,0.81 -2.75,1.38 -2.39,1.65 -4.72,3.37 -7.06,5.08 -2.48,1.82 -4.91,3.71 -7.43,5.48 -3.78,2.65 -7.51,5.4 -11.48,7.76 -1.83,1.09 -4.2,1.33 -6.33,1.97 -0.34,0.1 -0.65,0.29 -1.35,0.61 5.81,0.29 11.13,0.88 16.54,-0.17 6.69,-1.29 13.5,-1.98 20.23,-3.08 3.93,-0.64 7.54,-2.25 10.88,-4.3 3.1,-1.91 6.48,-2.54 10.08,-3.02 4.48,-0.59 8.64,0.96 12.98,1.04 4.56,0.09 9.12,0.5 13.69,0.53 4.26,0.03 8.52,-0.36 12.77,-0.34 3.17,0.02 6.33,0.58 9.5,0.56 4.19,-0.03 8.38,-0.42 12.57,-0.58 1.22,-0.05 2.46,0.13 3.67,0.33 0.47,0.08 0.87,0.49 1.31,0.75 -0.04,0.21 -0.07,0.42 -0.11,0.63 -1.9,0.06 -3.82,0.29 -5.7,0.15 -6.82,-0.51 -13.18,1.18 -19.47,3.4 -5.11,1.81 -10.37,3.26 -15.39,5.27 -7.65,3.06 -15.85,3.75 -23.8,5.42 -5.99,1.26 -12.16,1.73 -18.25,2.48 -3.85,0.48 -7.71,0.84 -11.75,1.27 2.63,0.47 5.12,0.89 7.6,1.36 2.3,0.43 4.6,0.84 6.87,1.35 4.02,0.89 8,1.92 12.03,2.76 6.58,1.38 13.27,1.9 20,2.16 2.68,0.1 5.34,0.56 8.01,0.74 0.97,0.06 1.97,-0.36 2.95,-0.32 1.07,0.05 2.13,0.37 3.19,0.58 -0.02,0.17 -0.05,0.35 -0.07,0.52 -0.17,0.1 -0.34,0.27 -0.52,0.29 -4.48,0.5 -8.92,0.05 -13.37,-0.41 -2.06,-0.21 -4.15,-0.33 -6.23,-0.3 -5.81,0.1 -11.39,-1.45 -17.09,-2.13 -2.96,-0.36 -5.79,-1.61 -8.72,-2.28 -3.73,-0.86 -7.5,-1.56 -11.26,-2.31 -2.6,-0.52 -5.21,-1.04 -7.82,-1.47 -1.84,-0.31 -3.71,-0.47 -5.57,-0.69 -0.06,-0.23 -0.11,-0.46 -0.17,-0.69 0.5,-0.25 1.01,-0.73 1.5,-0.71 7.26,0.3 14.48,-0.15 21.64,-1.13 8.31,-1.14 16.59,-2.53 24.85,-3.99 4.38,-0.77 8.74,-1.74 13.02,-2.93 3.36,-0.93 6.56,-2.38 9.87,-3.51 4.35,-1.49 8.72,-2.89 13.1,-4.3 0.4,-0.13 0.87,-0.06 1.3,-0.08 0,-0.16 0.01,-0.32 0.01,-0.48 -4.01,-0.09 -8.02,-0.25 -12.03,-0.25 -5.75,0.01 -11.5,0.16 -17.25,0.2 -4.84,0.04 -9.54,-1.26 -14.31,-1.62 -4.36,-0.33 -8.8,0.26 -12.66,2.74 -4.88,3.14 -10.33,4.64 -16.12,5.31 -2.69,0.31 -5.34,0.94 -8.02,1.36 -2.8,0.44 -5.6,0.96 -8.43,1.17 -3.67,0.28 -7.35,0.35 -11.03,0.38 -1.67,0.01 -3.37,-0.19 -5.02,-0.45 -1.85,-0.3 -3.38,0.07 -4.83,1.26 -8.1,6.63 -16.31,13.15 -24.35,19.86 -4.77,3.98 -9.35,8.18 -13.93,12.37 -2.54,2.33 -3.69,5.45 -4.39,8.64 -1.1,4.97 -2.18,9.97 -2.84,15.01 -0.53,4.08 -0.74,8.24 -0.51,12.34 0.15,2.58 1.33,5.12 2.12,7.65 1.22,3.87 2.74,7.67 3.71,11.59 0.94,3.8 1.35,7.72 2.03,11.58 0.14,0.79 0.4,1.55 0.61,2.32 0.19,0.01 0.38,0.02 0.57,0.02 0.13,-1.87 0.37,-3.73 0.35,-5.6 -0.03,-3.15 -0.15,-6.31 -0.36,-9.46 -0.21,-3.16 -0.56,-6.32 -0.88,-9.48 -0.11,-1.05 -0.35,-2.1 -0.42,-3.15 -0.02,-0.27 0.36,-0.76 0.61,-0.79 0.32,-0.04 0.87,0.18 1.01,0.44 2.81,5.08 5.92,10.03 8.24,15.31 2.25,5.14 5.46,9.58 8.94,13.91 0.62,0.77 1.5,1.36 2.52,2.26 -0.04,-0.59 -0.06,-0.83 -0.08,-1.06 0.09,0.03 0.2,0.04 0.27,0.1 1.74,1.59 3.56,3.1 5.17,4.8 0.64,0.68 0.82,1.76 1.21,2.66 -0.17,0.1 -0.33,0.2 -0.5,0.31 -0.33,-0.12 -0.86,-0.15 -0.98,-0.38 -1.34,-2.52 -3.87,-3.85 -6.02,-5.54 -2.91,-2.29 -5.08,-5.16 -6.94,-8.23 -1.99,-3.29 -3.75,-6.71 -5.62,-10.07 -1.53,-2.74 -3.09,-5.46 -4.62,-8.19 -0.33,-0.59 -0.62,-1.2 -1.03,-2 0.19,2.42 0.43,4.57 0.5,6.73 0.11,3.03 0.04,6.07 0.15,9.11 0.05,1.39 0.55,2.77 0.49,4.14 -0.12,2.78 -0.55,5.54 -0.71,8.32 -0.06,1.05 0.38,2.12 0.42,3.18 0.03,0.79 -0.2,1.6 -0.32,2.4 -0.29,0.01 -0.58,0.03 -0.87,0.04 -0.41,-1.44 -0.9,-2.87 -1.22,-4.33 -0.82,-3.73 -1.6,-7.47 -2.34,-11.22 -0.61,-3.1 -0.97,-6.26 -1.75,-9.32 -0.77,-3.03 -1.73,-6.06 -2.97,-8.94 -2.34,-5.43 -2.92,-10.98 -2.2,-16.76 0.3,-2.38 0.12,-4.82 0.44,-7.2 0.37,-2.76 1.01,-5.49 1.58,-8.22 0.39,-1.89 0.8,-3.77 1.28,-5.64 1.24,-4.82 4.53,-8.36 8.19,-11.6 2.97,-2.63 6.01,-5.19 9.05,-7.75 3.97,-3.33 7.95,-6.65 11.98,-9.93 4.15,-3.38 8.35,-6.69 12.54,-10.03 0.68,-0.54 1.4,-1.02 2.51,-1.83 -4.51,-0.32 -8.65,-0.92 -12.78,-0.83 -4.7,0.1 -9.4,0.78 -14.09,1.25 -1.25,0.13 -2.48,0.45 -3.74,0.59 -0.35,0.04 -0.75,-0.25 -1.12,-0.39 0.3,-0.38 0.52,-0.99 0.91,-1.11 2.7,-0.83 5.46,-1.51 8.17,-2.33 6.45,-1.93 12.87,-3.93 19.33,-5.85 3.67,-1.09 7.43,-1.95 11.07,-3.13 4.32,-1.4 8.6,-2.94 12.82,-4.59 3.64,-1.42 7.18,-3.09 10.77,-4.63 2.13,-0.91 4.39,-1.61 6.4,-2.71 1.65,-0.91 3.1,-2.2 4.51,-3.45 2.93,-2.58 5.97,-5.09 8.64,-7.91 3.54,-3.74 6.85,-7.69 10.1,-11.67 1.13,-1.38 1.82,-3.11 2.71,-4.68 -0.19,-0.16 -0.38,-0.33 -0.58,-0.49 -2.76,1.73 -5.68,3.28 -8.26,5.25 -4.2,3.2 -9.06,5.1 -13.86,7.17 -3.24,1.39 -6.63,2.54 -9.69,4.23 -2.59,1.44 -5.39,1.64 -8.14,2.22 -4.09,0.87 -8.26,1.37 -12.32,2.34 -7.37,1.76 -14.65,3.92 -22.04,5.59 -4.58,1.03 -9.34,1.29 -13.95,2.24 -3.52,0.72 -6.94,1.96 -10.39,3.01 -1.67,0.5 -3.31,1.09 -4.96,1.64 -0.11,-0.18 -0.22,-0.35 -0.34,-0.53 1.15,-0.91 2.19,-2.05 3.49,-2.68 2.12,-1.03 4.46,-1.67 6.64,-2.59 6.65,-2.81 13.87,-3.62 20.8,-5.37 7.12,-1.8 14.55,-2.57 21.44,-5.19 4.15,-1.58 8.24,-3.24 12.61,-4.24 4.38,-1 8.8,-2.03 12.98,-3.6 4.59,-1.72 9.46,-2.95 13.41,-6.05 1.19,-0.93 2.66,-1.54 3.91,-2.41 3.06,-2.13 6.07,-4.34 9.17,-6.57 -2.05,-1.91 -4.33,-1.82 -6.43,-2.04 -4.32,-0.46 -8.65,-0.8 -12.98,-1.04 -4.03,-0.22 -8.08,-0.41 -12.11,-0.29 -3.18,0.09 -6.34,0.64 -9.51,1.01 -4.04,0.48 -8.1,0.82 -12.09,1.55 -5.61,1.03 -11.13,2.49 -16.74,3.5 -3.26,0.59 -6.64,0.52 -9.93,1 -4.58,0.67 -9.13,1.58 -13.69,2.4 -5.19,0.94 -10.28,2.24 -15.65,2.33 -3.53,0.06 -7.04,1.06 -10.56,1.67 -3.56,0.62 -7.13,1.25 -10.68,1.93 -1.52,0.29 -3.01,0.72 -4.51,1.09 -0.07,-0.14 -0.14,-0.28 -0.21,-0.42 0.3,-0.25 0.57,-0.67 0.91,-0.74 4.62,-0.92 9.26,-1.79 13.89,-2.66 2.84,-0.54 5.67,-1.09 8.52,-1.59 1.09,-0.19 2.22,-0.17 3.32,-0.33 3.79,-0.57 7.57,-1.15 11.35,-1.79 3.89,-0.66 7.75,-1.42 11.64,-2.09 2.59,-0.44 5.2,-0.82 7.81,-1.19 4.81,-0.69 9.65,-1.22 14.44,-2.06 6.09,-1.06 12.11,-2.5 18.21,-3.5 3.79,-0.62 7.66,-0.88 11.5,-1.03 3.17,-0.12 6.35,0.18 9.53,0.26 1.98,0.04 3.96,-0.06 5.93,0.02 3.63,0.14 7.26,0.24 10.87,0.61 2.25,0.23 4.54,0.71 6.66,1.45 2.18,0.76 2.16,1.51 0.48,3.06 -5.5,5.08 -11.89,8.99 -18.7,12.11 -4.13,1.9 -8.76,2.79 -13.15,4.17 -6.46,2.03 -12.89,4.12 -19.36,6.12 -3.6,1.11 -7.22,2.23 -10.89,3.1 -6.24,1.49 -12.56,2.7 -18.8,4.2 -5.23,1.26 -10.41,2.73 -15.59,4.2 -1.51,0.43 -2.93,1.17 -4.39,1.77 0.05,0.18 0.09,0.29 0.14,0.4 z m 16.24,18.7 c 1.65,-0.18 2.85,-0.37 4.05,-0.42 2.59,-0.11 5.2,-0.33 7.79,-0.18 3.05,0.19 6.08,0.78 9.13,1.08 0.9,0.09 1.89,-0.07 2.77,-0.32 2.29,-0.67 4.55,-1.41 6.8,-2.2 1.35,-0.47 2.8,-0.88 3.95,-1.66 3.01,-2.04 6.05,-4.09 8.77,-6.46 3.47,-3.01 7.27,-5.52 11.23,-7.86 0.5,-0.3 0.94,-0.7 1.4,-1.06 -0.06,-0.08 -0.13,-0.15 -0.19,-0.23 -1.09,0.49 -2.18,0.97 -3.27,1.46 -2.65,1.18 -5.28,2.41 -7.96,3.53 -1.52,0.63 -3.14,1.05 -4.69,1.62 -3.38,1.25 -6.7,2.69 -10.13,3.79 -4.98,1.59 -10.04,2.96 -15.08,4.39 -2.46,0.7 -4.96,1.28 -7.4,2.06 -2.24,0.71 -4.65,0.93 -7.17,2.46 z" id="path9"></path>
		<path d="m 356.95,283.58 c -1.58,0.54 -3.16,1.07 -4.72,1.63 -2.32,0.82 -3.99,0.18 -5.85,-1.42 -2.87,-2.47 -5.95,-4.71 -9.02,-6.95 -1.54,-1.13 -3.23,-2.05 -4.86,-3.07 -0.17,0.13 -0.34,0.27 -0.51,0.4 0.91,1.27 2.01,2.45 2.7,3.81 1.9,3.78 6.31,5.35 8.38,8.89 2.46,4.2 6.68,6.75 9.88,10.23 2.2,2.38 4.55,4.65 5.85,7.75 0.64,1.52 2.15,2.72 3.37,3.98 1.54,1.58 3.2,3.04 4.76,4.59 0.56,0.56 1.01,1.23 1.52,1.86 -0.99,0.83 -1.6,0.69 -2.34,-0.12 -3.84,-4.19 -8.06,-8 -12.41,-11.71 -2.98,-2.54 -5.33,-5.77 -7.82,-8.8 -3.08,-3.75 -6.95,-6.71 -10.43,-10.05 -3.11,-2.98 -6.01,-6.2 -8.79,-9.48 -2.97,-3.5 -6.92,-5.5 -11.05,-7.29 -3.04,-1.32 -6.09,-2.64 -9.15,-3.93 -1.37,-0.57 -2.73,-1.29 -4.17,-1.5 -0.91,-0.13 -2.53,0.29 -2.82,0.9 -1.18,2.51 -3.4,3.09 -5.76,3.14 -4.06,0.09 -8.18,0.85 -12.16,-0.52 -1.14,-0.39 -2.13,-1.16 -3.27,-1.54 -2.89,-0.97 -5.8,-1.9 -8.75,-2.68 -0.97,-0.25 -1.18,0.6 -1.22,1.48 -0.14,2.91 -2.96,6.36 -5.73,7.14 -1.4,0.39 -2.6,-0.17 -3.01,-1.55 -1.48,-5.02 -3.88,-9.53 -7.59,-13.4 -0.96,-1 -1.59,-2.3 -2.37,-3.45 -2.65,1.52 -5.41,2.09 -8.42,2.29 -4.38,0.29 -8.72,1.06 -13.06,1.73 -3.51,0.54 -6.98,1.23 -10.48,1.84 -2.11,0.37 -4.22,0.88 -6.35,1 -2.88,0.16 -5.81,0.21 -8.67,-0.12 -1.23,-0.14 -2.33,-1.35 -3.85,-2.3 -1,1.58 -2.02,3.15 -3,4.74 -0.28,0.46 -0.42,1.01 -0.74,1.44 -0.52,0.7 -1.07,0.93 -1.93,0.24 -3.72,-2.97 -7.34,-6.09 -11.33,-8.7 -2.18,-1.42 -4.95,-2.17 -7.56,-2.79 -3.2,-0.76 -6.51,-1.11 -9.78,-1.57 -1.26,-0.18 -2.71,0.35 -3.68,-1.16 0.33,-0.16 0.68,-0.48 0.95,-0.44 5.2,0.93 10.41,1.78 15.56,2.91 2.72,0.6 5.15,1.75 7.27,3.79 2.75,2.63 6.04,4.74 8.99,6.99 1.73,-2.17 3.32,-4.09 4.83,-6.06 1,-1.3 1.92,-0.75 2.51,0.19 0.95,1.52 2.36,1.78 3.99,1.87 5.07,0.3 10.03,-0.42 15,-1.32 6.26,-1.13 12.55,-2.16 18.84,-3.16 2.42,-0.38 4.91,-0.39 7.3,-0.88 1.43,-0.29 2.73,-1.18 4.23,-1.87 0.55,0.81 1.1,1.61 1.63,2.41 2.38,3.56 4.83,7.08 7.11,10.7 0.74,1.17 1.06,2.58 1.58,3.88 0.75,1.85 1.5,2.18 3.13,0.99 2.09,-1.52 3.86,-3.29 3.67,-6.17 -0.12,-1.91 -0.01,-1.95 2.09,-1.65 3.77,0.53 7.37,1.49 10.74,3.32 2.73,1.48 5.85,1.65 8.93,1.67 0.95,0.01 1.9,-0.18 2.85,-0.14 2.96,0.12 5.41,-0.61 7.13,-3.17 1.03,-1.53 2.41,-1.71 4.07,-0.99 4.57,1.98 9.16,3.93 13.74,5.89 5.43,2.32 9.89,5.65 13.52,10.3 2.73,3.49 6.34,6.34 9.6,9.45 0.97,0.93 2.05,1.76 3.19,2.54 -0.92,-2.24 -2.55,-3.9 -4.42,-5.45 -1.45,-1.21 -2.84,-2.58 -3.91,-4.1 -1.74,-2.48 -3.2,-5.15 -4.84,-7.83 0.44,-0.28 0.83,-0.54 1.22,-0.79 3.76,2.57 7.5,5.05 11.15,7.65 1.71,1.22 3.31,2.59 4.86,4 1.42,1.28 2.91,1.68 4.76,0.98 1.55,-0.59 3.16,-1.04 4.91,-1.61 -1.21,-3.31 -2.56,-6.64 -4.79,-9.58 -1.64,-2.17 -3.25,-4.37 -4.98,-6.47 -1.49,-1.8 -3.47,-3.3 -4.64,-5.26 -1.93,-3.23 -4.27,-6.33 -4.93,-10.14 -0.23,-1.35 -1.9,-2.44 -0.59,-4.29 0.59,1.31 1.24,2.46 1.62,3.68 1.65,5.16 5.2,9.2 8.36,13.5 3.23,4.39 7.41,8.13 9.65,13.18 0.77,1.73 1.33,3.54 1.89,5.09 3.3,0.44 6.46,0.8 9.59,1.31 1.13,0.18 2.23,0.64 3.28,1.09 2.93,1.26 6.01,1.48 9.17,1.5 2.61,0.02 5.22,0.36 7.83,0.54 4.78,0.33 9.57,0.56 14.33,1 4.52,0.42 9.03,0.99 13.52,1.65 1.91,0.28 3.64,1.08 4.59,2.95 0.25,0.49 0.82,0.96 1.35,1.16 5.31,1.99 10.61,4.04 15.99,5.83 3.46,1.15 7.12,1.69 10.74,0.72 2.4,-0.65 4.64,-1.88 7.06,-2.48 3.44,-0.85 6.97,-1.32 10.45,-2.01 1.85,-0.37 3.74,-0.72 5.5,-1.36 4.27,-1.54 7.52,0.03 10.46,2.82 4.09,3.9 8.07,7.92 12.29,11.7 2.03,1.82 4.51,3.17 6.76,4.77 5.03,3.59 10.11,7.12 15.04,10.84 2.54,1.92 4.7,4.3 7.23,6.23 1.95,1.48 4.25,2.54 6.33,3.87 3.03,1.95 5.99,3.98 8.99,5.96 0.36,0.24 0.78,0.52 1.19,0.57 0.9,0.1 2.42,0.34 2.6,0.01 0.41,-0.79 0.5,-2.02 0.13,-2.83 -1.19,-2.57 -2.57,-5.07 -4.02,-7.52 -0.76,-1.28 -1.83,-2.4 -2.89,-3.77 0.52,-0.23 1.08,-0.67 1.65,-0.69 4.37,-0.13 8.74,-0.17 13.1,-0.28 0.58,-0.02 1.16,-0.32 1.74,-0.49 0.02,-0.16 0.04,-0.33 0.06,-0.49 -1.38,-0.59 -2.75,-1.2 -4.13,-1.77 -4.17,-1.74 -8.39,-3.37 -12.5,-5.22 -6.61,-2.99 -13.19,-6.04 -19.7,-9.23 -3.29,-1.61 -6.3,-3.74 -9.59,-5.33 -3.79,-1.83 -7.78,-3.3 -11.64,-5.01 -0.86,-0.38 -2.29,-1.43 -2.19,-1.64 0.66,-1.46 1.88,-0.37 2.7,-0.11 6.01,1.89 12,3.85 17.95,5.91 2.4,0.84 4.66,2.04 7.03,2.98 1.01,0.4 2.12,0.59 3.2,0.8 3.79,0.75 7.6,1.13 11.49,0.99 4.93,-0.17 9.55,1.18 14.14,2.82 3.91,1.39 7.11,3.82 10.37,6.1 3.18,2.22 6.76,3 10.4,3.78 4.52,0.97 9.04,2.02 13.61,2.66 4.63,0.64 8.88,2.43 13.34,3.5 5.28,1.26 10.66,2.15 16.01,3.16 3.6,0.68 7.2,1.28 10.81,1.89 0.42,0.07 0.89,-0.1 1.32,-0.05 0.46,0.06 0.9,0.25 1.35,0.38 -0.05,0.21 -0.09,0.42 -0.14,0.63 -1.14,0 -2.31,0.15 -3.42,-0.03 -6.36,-1.01 -12.75,-1.93 -19.05,-3.23 -4.31,-0.89 -8.46,-2.44 -12.73,-3.55 -2.57,-0.67 -5.22,-1.05 -7.82,-1.6 -3.49,-0.74 -6.98,-1.49 -10.45,-2.31 -3.93,-0.92 -7.89,-1.79 -11.74,-2.96 -1.51,-0.46 -2.83,-1.63 -4.12,-2.62 -4.51,-3.45 -9.6,-5.84 -15.2,-6.87 -3.77,-0.69 -7.72,-0.45 -11.58,-0.8 -3.15,-0.29 -6.36,-0.54 -9.38,-1.37 -2.82,-0.77 -5.39,-2.34 -8.13,-3.43 -1.98,-0.79 -4.05,-1.38 -6.2,-1.77 2.01,1.23 3.96,2.54 6.04,3.66 3.01,1.62 6.1,3.1 9.17,4.62 2.42,1.19 4.86,2.35 7.31,3.5 3.26,1.53 6.5,3.08 9.8,4.52 4.33,1.89 8.7,3.71 13.08,5.5 0.94,0.38 2.12,0.52 1.7,1.85 -0.47,1.5 -1.52,1.77 -3.12,1.6 -4.06,-0.42 -8.14,-0.52 -12.29,0.51 0.84,1.52 1.62,2.9 2.36,4.3 1.07,2.01 2.12,4.02 3.15,6.05 0.27,0.52 0.58,1.08 0.64,1.64 0.28,2.44 -1.5,3.83 -3.98,2.83 -3.21,-1.29 -6.3,-2.79 -8.73,-5.38 -1.11,-1.18 -2.83,-1.86 -4.32,-2.68 -4.32,-2.36 -8.2,-5.17 -11.5,-8.81 -1.54,-1.7 -3.79,-2.81 -5.71,-4.19 -4.43,-3.17 -8.82,-6.41 -13.31,-9.5 -5.76,-3.95 -10.42,-9.01 -15.42,-13.72 -1.07,-1.01 -2.26,-2 -3.59,-2.6 -1.15,-0.52 -2.64,-0.83 -3.86,-0.61 -5.15,0.93 -10.27,2.03 -15.36,3.21 -2.32,0.54 -4.64,1.23 -6.79,2.19 -3.83,1.71 -7.81,1.83 -11.65,0.75 -5.19,-1.46 -10.2,-3.47 -15.3,-5.24 -0.58,-0.2 -1.16,-0.38 -1.76,-0.53 -1.66,-0.42 -3,-1.09 -4.05,-2.6 -0.7,-1 -2.16,-1.95 -3.4,-2.11 -7.08,-0.91 -14.19,-1.7 -21.31,-2.3 -5.89,-0.49 -11.84,-0.44 -17.71,-1.06 -3.01,-0.32 -6.01,-1.01 -8.91,-2.31 -2.5,-1.11 -5.59,-1.02 -8.42,-1.46 -0.17,0.23 -0.34,0.46 -0.51,0.69 1.02,1.8 1.81,3.78 3.13,5.34 2.21,2.61 4.8,4.91 7.14,7.41 1.04,1.1 1.81,2.43 2.81,3.57 3.45,3.96 7.02,7.81 10.37,11.84 1.97,2.37 3.43,5.14 5.45,7.46 2.65,3.03 5.57,5.85 8.49,8.66 2.45,2.36 5.01,4.63 7.6,6.85 1.13,0.97 1.31,2 0.85,3.3 -0.22,-0.04 -0.43,-0.01 -0.53,-0.1 -5.12,-4.85 -10.43,-9.54 -15.27,-14.64 -3.13,-3.29 -5.49,-7.24 -8.36,-10.77 -2.66,-3.27 -5.5,-6.41 -8.34,-9.53 -2.23,-2.45 -4.72,-4.7 -6.87,-7.21 -2.34,-2.74 -4.48,-5.65 -6.58,-8.57 -0.69,-1.02 -1.08,-2.31 -1.79,-3.82 z m -0.15,21.44 c 0.24,-0.16 0.48,-0.32 0.72,-0.48 -2.85,-4.19 -6.17,-7.98 -10.36,-11.02 -0.16,0.14 -0.32,0.28 -0.48,0.41 3.37,3.7 6.74,7.4 10.12,11.09 z" id="path11"></path>
		<path d="m 383.38,397.85 c 1.52,0.7 3.11,1.29 4.54,2.13 3.1,1.81 6.25,3.56 9.13,5.66 3.87,2.83 8,5.08 12.55,6.73 1.76,0.64 3.53,1.54 4.92,2.73 1.41,1.21 2.61,2.81 3.41,4.46 0.65,1.33 1.47,1.99 2.84,2.04 1.33,0.05 2.69,-0.03 4.01,-0.2 1.49,-0.19 2.84,-0.25 4.26,0.54 2.4,1.33 5.03,2.28 7.4,3.66 1.02,0.59 1.81,1.77 2.34,2.85 1.46,2.98 3.49,5.27 7,5.93 1.25,0.23 2.56,0.16 3.85,0.21 3.47,0.13 7.02,-0.13 10.4,0.47 3.63,0.64 7.06,2.21 10.65,3.13 2.14,0.55 4.41,0.68 6.64,0.93 4.33,0.49 8.67,0.98 13.01,1.37 1.35,0.12 1.63,0.79 1.74,1.9 0.39,4.06 0.93,8.1 1.22,12.16 0.12,1.67 -0.3,3.37 -0.42,5.07 -0.17,2.39 -0.33,4.78 -0.41,7.17 -0.03,0.93 -0.27,1.53 -1.11,2.14 -1.93,1.41 -3.67,2.73 -6.45,2.36 -1.51,-0.2 -3.19,0.76 -4.8,1.19 -2.83,0.76 -5.66,1.55 -8.5,2.27 -1.23,0.31 -2.51,0.68 -3.76,0.64 -2.61,-0.09 -4.29,1.32 -5.89,2.95 -0.65,0.67 -1.32,1.33 -1.88,2.07 -1.69,2.22 -4,3.6 -6.52,4.8 -4.56,2.18 -9.24,4.21 -13.5,6.84 -3.06,1.89 -6.41,3.02 -9.59,4.56 -1,0.48 -1.98,1.03 -3,1.47 -5.43,2.35 -10.86,4.67 -16.3,7 -7.76,3.31 -15.31,7.01 -22.74,10.95 -3.27,1.74 -5.62,4.4 -7.6,7.34 -2.38,3.55 -4.9,7.06 -6.79,10.84 -1.35,2.69 -1.67,5.85 -2.61,8.74 -0.57,1.77 -1.14,3.68 -2.28,5.11 -1.63,2.04 -3.73,3.75 -5.72,5.51 -1.26,1.11 -2.67,2.05 -4.01,3.08 -2.96,2.29 -5.8,4.73 -8.9,6.84 -1.45,0.99 -3.34,1.48 -5.1,1.94 -3.56,0.95 -6.21,3.38 -9.35,4.99 -4.31,2.21 -8.35,4.92 -13.14,6.31 -4.41,1.27 -8.61,3.18 -12.99,4.56 -2.4,0.75 -5.01,0.9 -7.48,1.48 -2.24,0.53 -4.42,1.29 -6.64,1.92 -0.4,0.11 -0.84,0.07 -1.3,-0.11 2.08,-1.91 4.62,-2.75 7.28,-3.01 6.34,-0.63 12.19,-2.78 18.1,-4.88 5.06,-1.8 9.87,-4.03 14.51,-6.63 1.98,-1.1 3.76,-2.53 5.76,-3.59 2.1,-1.11 4.28,-2.2 6.56,-2.84 4.26,-1.2 7.36,-3.99 10.6,-6.59 3.06,-2.47 6.01,-5.06 9.01,-7.6 0.24,-0.21 0.55,-0.39 0.71,-0.65 1.64,-2.67 3.47,-5.29 3.98,-8.42 0.75,-4.6 2.78,-8.69 5.26,-12.59 1.65,-2.6 3.5,-5.1 5.44,-7.51 3.17,-3.92 7.57,-6.3 12.12,-8.44 6.18,-2.9 12.35,-5.82 18.58,-8.62 2.94,-1.32 6.06,-2.3 9.01,-3.6 5.1,-2.25 10.19,-4.51 15.18,-6.97 6.41,-3.16 12.73,-6.48 19.03,-9.84 1.09,-0.58 1.87,-1.68 2.79,-2.54 1.96,-1.84 3.89,-3.7 5.91,-5.48 0.41,-0.36 1.14,-0.63 1.67,-0.57 2.86,0.33 5.35,-0.88 7.96,-1.58 3.42,-0.92 6.87,-1.76 10.3,-2.62 0.32,-0.08 0.7,-0.23 0.99,-0.15 2.05,0.58 3.6,-0.14 4.76,-1.72 0.47,-0.64 0.98,-1.38 1.09,-2.13 0.39,-2.65 0.82,-5.32 0.85,-7.98 0.03,-2.52 -0.4,-5.04 -0.67,-7.56 -0.27,-2.57 -0.54,-5.13 -0.91,-7.69 -0.06,-0.41 -0.62,-1.03 -1.02,-1.08 -3.68,-0.49 -7.36,-0.96 -11.06,-1.29 -4.79,-0.42 -9.47,-1.15 -14.01,-2.84 -4.73,-1.76 -9.67,-2.41 -14.78,-1.68 -4.38,0.62 -10.23,-1.98 -11.86,-6.49 -0.87,-2.4 -2.73,-4 -5.35,-4.75 -1.28,-0.37 -2.47,-1.12 -3.77,-1.3 -2.8,-0.38 -5.63,-0.54 -8.46,-0.72 -2.31,-0.15 -2.91,-0.39 -3.48,-2.63 -0.59,-2.31 -1.99,-3.8 -4.12,-4.78 -3.36,-1.54 -6.81,-2.94 -10.07,-4.66 -2.32,-1.22 -4.51,-2.75 -6.56,-4.37 -3.88,-3.08 -8.23,-5.32 -12.77,-7.34 -2.37,-1.06 -4.47,-2.66 -6.7,-4.01 0.07,-0.24 0.14,-0.47 0.21,-0.71 0.49,0 1.1,-0.19 1.44,0.03 4.13,2.62 8.88,3.61 13.57,4.76 4.87,1.19 9.92,1.98 14.11,4.88 1.74,1.21 3.11,2.9 4.81,4.19 2.13,1.61 4.22,3.54 6.69,4.41 3.13,1.1 6.65,1.14 9.95,1.88 2.8,0.63 5.59,1.43 8.27,2.45 3.31,1.26 6.51,2.81 9.74,4.25 1.72,0.77 3.5,1.45 5.09,2.42 2.48,1.5 4.92,0.88 7.39,0.22 3.32,-0.88 6.58,-1.98 9.94,-2.69 1.94,-0.41 4.02,-0.24 6.04,-0.29 1.72,-0.04 3.45,-0.01 5.17,-0.16 -4.86,-2.74 -10.12,-4.33 -15.46,-5.64 -2.77,-0.68 -5.2,-1.9 -7.41,-3.57 -2.35,-1.77 -5.27,-2.06 -7.96,-2.96 -7.09,-2.37 -14.33,-4.36 -20.82,-8.21 -2.66,-1.58 -5.78,-2.42 -8.68,-3.62 -0.66,-0.28 -1.31,-0.62 -1.91,-1 -4.18,-2.63 -8.37,-5.25 -12.5,-7.95 -1.1,-0.72 -2.21,-1.57 -2.95,-2.6 -2.27,-3.16 -5.55,-3.58 -8.92,-2.83 -6.59,1.48 -12.91,0.59 -19.24,-1.14 -2.14,-0.58 -4.39,-0.83 -6.46,-1.56 -2.44,-0.86 -4.72,-2.13 -7.1,-3.15 -3.34,-1.43 -6.69,-2.84 -10.08,-4.17 -2.35,-0.93 -4.74,-1.79 -7.17,-2.51 -1.31,-0.39 -2.74,-0.37 -4.09,-0.63 -0.85,-0.17 -1.66,-0.52 -2.48,-0.8 0.06,-0.25 0.12,-0.51 0.18,-0.76 1.66,0.17 3.43,0.06 4.97,0.58 5.6,1.88 11.16,3.87 16.64,6.02 2.37,0.93 4.42,2.6 6.79,3.5 2.67,1.01 5.52,1.6 8.31,2.27 2.59,0.61 5.22,1.06 7.82,1.62 2.87,0.62 5.71,0.4 8.6,-0.02 2.64,-0.38 5.36,-0.68 8.01,-0.52 1.38,0.09 2.85,1.07 3.99,1.98 2.18,1.73 3.98,3.93 6.26,5.51 3.16,2.2 6.56,4.13 9.98,5.96 1.88,1.01 4.07,1.47 6.03,2.36 2.32,1.06 4.54,2.31 6.81,3.49 4.07,2.11 8.2,3.97 12.75,5.08 4.22,1.03 8.29,2.65 12.38,4.11 1.01,0.36 1.8,1.27 2.81,1.7 2.57,1.1 5.18,2.11 7.81,3.07 5.33,1.96 10.67,3.86 16.01,5.79 0.62,0.22 1.25,0.42 1.85,0.68 0.17,0.07 0.26,0.33 0.41,0.53 -0.32,0.4 -0.62,0.77 -0.82,1.02 -5.31,-1.31 -10.59,-0.69 -15.78,-0.07 -3.53,0.42 -7.03,1.6 -10.38,2.84 -2.75,1.01 -5.13,0.5 -7.53,-0.63 -2.91,-1.38 -5.68,-3.08 -8.67,-4.27 -4.32,-1.72 -8.73,-3.27 -13.2,-4.56 -3.24,-0.93 -6.65,-1.31 -9.98,-1.95 -3.06,-0.59 -5.61,-2.29 -7.42,-4.48 -4.13,-4.99 -9.71,-7.1 -15.84,-8.51 -3.45,-0.8 -6.84,-1.84 -10.26,-2.76 -0.2,-0.05 -0.42,-0.05 -0.64,-0.08 -0.01,0.05 -0.04,0.13 -0.07,0.21 z" id="path13"></path>
		<path d="m 423.47,195.47 c -1.18,0.43 -2.25,0.83 -3.44,1.26 -0.15,-0.68 -0.5,-1.34 0.74,-1.59 1.07,-0.21 2.1,-0.59 3.13,-0.92 2.64,-0.86 5.24,-1.84 7.92,-2.58 4.27,-1.17 8.61,-2.09 12.86,-3.32 1.59,-0.46 3.17,-1.28 4.46,-2.28 2.83,-2.21 5.3,-4.88 8.25,-6.92 2.85,-1.97 6.05,-3.49 9.2,-5.01 3.25,-1.57 6.86,-1.28 10.36,-1.3 3.67,-0.01 7.35,-0.03 11,0.32 4.69,0.44 9.34,1.24 14,1.88 0.61,0.08 1.25,0.05 1.84,0.18 0.64,0.15 1.25,0.44 1.86,0.96 -9.16,2.34 -18.25,4.56 -25.92,10.04 0.03,0.17 0.06,0.34 0.09,0.51 0.51,0.1 1.03,0.27 1.54,0.28 2.69,0.06 5.05,0.95 7.35,2.29 1.74,1.02 3.75,1.62 5.63,2.43 2.84,1.22 5.6,2.68 8.54,3.59 2.15,0.66 4.59,0.41 6.82,0.91 5.62,1.26 11.26,2.22 17.04,2.57 4.45,0.27 8.89,0.77 13.33,1.22 0.42,0.04 0.79,0.44 1.19,0.68 -0.34,0.29 -0.68,0.82 -1.03,0.84 -2.02,0.09 -4.05,-0.02 -6.07,0.09 -2.19,0.12 -4.48,0.06 -6.53,0.68 -5.26,1.6 -10.35,3.69 -15.62,5.26 -3.35,1 -6.87,1.63 -10.37,2.01 -3.91,0.44 -7.77,-0.11 -11.01,-2.57 -3.24,-2.46 -6.54,-4.87 -9.55,-7.58 -1.79,-1.62 -3.07,-3.76 -4.58,-5.67 -1.43,-1.81 -2.06,-1.92 -3.92,-0.62 -3.48,2.42 -7.38,3.73 -11.65,3.9 -3.27,0.13 -6.55,-0.04 -9.81,0.12 -3.46,0.17 -6.67,-0.43 -9.99,-1.45 -2.44,-0.75 -5.34,-0.34 -8.01,-0.14 -2.6,0.19 -5.19,0.69 -7.75,1.21 -1.14,0.24 -1.82,0.17 -1.9,-1.28 z m 75.3,-19.35 c -0.62,-0.22 -0.8,-0.33 -0.99,-0.35 -3.31,-0.4 -6.6,-0.94 -9.92,-1.13 -4.24,-0.25 -8.5,-0.23 -12.76,-0.31 -2.48,-0.05 -4.98,-0.19 -7.3,0.96 -3.12,1.55 -6.46,2.79 -9.34,4.67 -2.68,1.76 -4.89,4.19 -7.31,6.32 -1.87,1.64 -3.79,3.21 -6.4,3.67 -2.31,0.4 -4.66,0.61 -6.91,1.21 -2.64,0.7 -5.18,1.73 -7.76,2.61 3.04,0.17 5.94,0.15 8.84,0.18 0.49,0.01 0.98,0.21 1.47,0.31 2.75,0.53 5.49,1.37 8.26,1.49 3.95,0.16 7.93,-0.13 11.89,-0.39 2.2,-0.15 4.5,-0.31 6.54,-1.02 2.17,-0.75 4.08,-2.16 6.18,-3.32 -1.23,-1.39 -2.08,-2.45 -3.04,-3.41 -0.63,-0.63 -1.44,-1.08 -2.15,-1.64 -0.63,-0.5 -1.23,-1.04 -1.84,-1.57 0.14,-0.22 0.28,-0.44 0.42,-0.66 0.75,0.22 1.51,0.4 2.24,0.67 0.46,0.17 0.84,0.58 1.3,0.67 2.18,0.43 4.37,0.8 6.56,1.16 0.36,0.06 0.83,0.08 1.09,-0.09 0.99,-0.68 1.87,-1.51 2.87,-2.17 1.65,-1.08 3.26,-2.31 5.07,-3.05 4.15,-1.69 8.4,-3.13 12.99,-4.81 z m 29.17,24.27 c -0.52,-0.17 -0.81,-0.33 -1.11,-0.35 -5.5,-0.52 -10.99,-0.94 -16.37,-2.32 -2.91,-0.74 -6.11,-0.61 -8.89,-1.6 -5.05,-1.8 -9.95,-4.02 -14.78,-6.32 -2.6,-1.24 -5.37,-1.24 -8.07,-1.78 -0.31,-0.06 -0.8,0.13 -1.04,0.36 -0.98,0.92 -1.9,1.9 -2.8,2.82 1.23,0.87 2.6,1.46 3.4,2.48 3.16,3.99 6.55,7.68 10.81,10.66 4.26,2.98 8.93,4.53 14.05,3.71 4.87,-0.78 9.75,-1.75 14.32,-3.83 3.29,-1.5 6.82,-2.51 10.48,-3.83 z M 476.3,187.5 c -1.81,-0.34 -3.73,-0.69 -6.02,-1.12 1.36,1.45 2.41,2.57 3.8,4.04 0.84,-1.11 1.52,-2.01 2.22,-2.92 z" id="path15"></path>
		<path d="m 557.92,87.95 c 3.06,1.26 5.96,2.29 8.71,3.62 3.83,1.87 7.8,1.74 11.84,1.15 0.63,-0.09 1.2,-0.53 1.82,-0.76 0.67,-0.24 1.36,-0.48 2.06,-0.6 0.23,-0.04 0.66,0.26 0.75,0.49 0.09,0.22 -0.07,0.67 -0.27,0.82 -0.63,0.44 -1.31,0.84 -2.02,1.15 -4.22,1.81 -8.35,3.91 -12.73,5.27 -3.13,0.97 -6.6,1.11 -9.87,-0.17 -4.88,-1.9 -9.78,-3.75 -14.64,-5.71 -2.7,-1.08 -5.35,-2.28 -7.97,-3.52 -1.28,-0.6 -2.58,-1.27 -3.65,-2.14 -2.55,-2.08 -5.77,-2.14 -8.74,-2.93 -2.89,-0.77 -5.85,-1.33 -8.75,-2.07 -1.03,-0.26 -1.32,-1.06 -0.83,-2.32 4.58,-0.09 9.22,-0.11 13.86,-0.31 2.03,-0.09 4.06,-0.54 6.07,-0.9 2.79,-0.49 5.56,-1.02 8.34,-1.57 3.42,-0.68 6.85,-1.37 10.26,-2.11 0.7,-0.15 1.34,-0.55 2,-0.85 4.2,-1.9 8.29,-4.1 12.64,-5.61 3.54,-1.23 7.32,-1.67 11.09,0.03 2.08,0.95 4.46,1.31 6.69,1.95 3.46,1 6.87,2.17 10.37,2.99 3.77,0.89 7.61,1.5 11.45,2.13 0.89,0.15 1.85,-0.2 2.79,-0.22 0.37,-0.01 0.75,0.22 1.13,0.34 -0.17,0.35 -0.26,0.94 -0.53,1.02 -1.57,0.48 -3.16,1.1 -4.78,1.2 -5.58,0.36 -10.97,1.48 -15.92,3.93 -2.37,1.17 -4.53,2.88 -6.47,4.66 -4.17,3.83 -8.83,4.43 -14.19,2.87 -2.98,-0.87 -6.11,-1.25 -9.18,-1.84 -0.36,-0.05 -0.73,0.01 -1.33,0.01 z m 44.83,-10.94 c 0.01,-0.1 0.03,-0.2 0.04,-0.3 -2.73,-0.44 -5.52,-0.67 -8.18,-1.37 -5.23,-1.38 -10.4,-2.98 -15.56,-4.58 -2.87,-0.89 -5.68,-1.78 -8.78,-1.32 -4.33,0.64 -8.22,2.45 -11.94,4.43 -3.72,1.97 -7.59,3.21 -11.73,3.92 -3.44,0.59 -6.91,1.13 -10.3,1.95 -3.91,0.95 -7.8,1.75 -11.87,1.6 -1.67,-0.06 -3.35,0.18 -5.03,0.28 1.63,0.79 3.29,1.2 4.94,1.66 2.18,0.61 4.49,0.99 6.5,1.93 2.88,1.36 5.5,3.23 8.32,4.73 2.05,1.09 4.2,2.05 6.38,2.88 2.38,0.91 4.87,1.53 7.26,2.42 1.97,0.73 3.8,1.83 5.81,2.44 4.45,1.37 12.23,-0.18 15.71,-2.79 -2.1,-0.38 -4.5,-0.57 -6.72,-1.28 -2.33,-0.74 -4.42,-2.17 -6.75,-2.96 -2.4,-0.81 -4.94,-1.31 -7.46,-1.73 -1.23,-0.21 -2.55,0.09 -3.83,0.12 -1,0.03 -1.43,-0.41 -1.17,-1.36 6.06,-2.43 18.51,-0.53 19.47,1.03 1.43,0 2.69,-0.02 3.95,0 1.65,0.03 3.47,0.54 4.92,0.04 1.92,-0.67 3.83,-1.85 5.25,-3.27 3.42,-3.39 7.56,-5.44 12.15,-6.72 2.8,-0.78 5.73,-1.18 8.62,-1.75 z" id="path17"></path>
		<path d="m 451.39,228.89 c -1.58,0.28 -3.16,0.6 -4.75,0.84 -3.45,0.5 -6.68,1.41 -9.2,3.97 -0.99,1.01 -2.24,1.78 -3.39,2.63 -0.75,0.56 -1.7,0.95 -2.28,1.63 -2.6,3.04 -6.36,3.42 -9.96,4.07 -5.31,0.96 -10.61,0.14 -15.9,-0.43 -3.47,-0.38 -6.98,-0.51 -10.44,-0.96 -3.58,-0.47 -7.12,-1.17 -10.67,-1.82 -3.12,-0.57 -6.22,-1.21 -9.33,-1.82 -0.06,0.13 -0.12,0.26 -0.18,0.39 1.69,1.08 3.33,2.26 5.09,3.22 4.59,2.48 8.8,5.47 12.65,8.89 4.23,3.76 9.46,5.15 14.88,6.19 1.21,0.23 2.41,0.55 3.63,0.65 0.82,0.06 1.66,-0.26 2.5,-0.3 4.58,-0.18 9.16,-0.26 13.73,-0.52 2.03,-0.12 4.06,-0.88 6.07,-0.82 4.51,0.15 9.02,0.6 13.52,1.01 1.65,0.15 3.3,0.45 4.92,0.81 0.48,0.11 0.86,0.64 1.28,0.98 -0.45,0.2 -0.89,0.49 -1.36,0.57 -0.48,0.08 -1.01,-0.01 -1.49,-0.11 -1.76,-0.36 -3.49,-0.91 -5.27,-1.11 -2.94,-0.33 -5.91,-0.39 -8.86,-0.67 -4.84,-0.46 -9.49,0.81 -14.2,1.47 -3.75,0.52 -7.4,-0.06 -11.05,-0.51 -3.68,-0.46 -7.29,-1.49 -10.95,-2.17 -4.24,-0.78 -7.11,-3.61 -10.33,-6 -3.66,-2.72 -7.58,-5.13 -11.38,-7.68 -0.91,-0.61 -1.77,-1.3 -2.66,-1.93 -2.11,-1.5 -4.52,-1.92 -7.07,-1.65 -0.14,-1.24 0.05,-1.55 1.12,-1.62 3.78,-0.27 7.44,-0.4 11.26,0.62 4.95,1.31 10.14,1.84 15.25,2.54 4.05,0.55 8.13,1.03 12.21,1.23 4.7,0.22 9.44,1.29 14.12,-0.39 0.85,-0.31 1.88,-0.13 2.8,-0.3 0.92,-0.18 1.97,-0.31 2.67,-0.83 2.85,-2.07 5.48,-4.41 8.39,-6.38 1.98,-1.34 4.28,-2.24 6.46,-3.29 0.53,-0.26 1.15,-0.34 1.75,-0.79 -0.32,-0.08 -0.64,-0.21 -0.96,-0.24 -3.29,-0.29 -6.57,-0.6 -9.86,-0.83 -0.88,-0.06 -1.78,0.25 -2.67,0.23 -5.5,-0.11 -10.84,0.75 -16.18,1.96 -2.75,0.62 -5.66,0.74 -8.5,0.76 -1.43,0.01 -2.98,-0.47 -4.28,-1.11 -3.83,-1.9 -7.74,-1.56 -11.77,-0.94 -5.44,0.84 -10.91,1.51 -16.37,2.2 -4.23,0.53 -8.48,0.96 -12.73,1.44 -0.04,-0.25 -0.11,-0.69 -0.2,-1.26 2.21,-0.23 4.4,-0.52 6.61,-0.69 6.7,-0.54 13.36,-1.28 19.95,-2.62 2.4,-0.49 4.86,-0.98 7.28,-0.97 2.05,0 4.25,0.38 6.11,1.19 3.24,1.41 6.46,1.53 9.84,1.01 4.74,-0.73 9.47,-1.74 14.25,-2.08 4.28,-0.3 8.64,-0.01 12.94,0.3 2.74,0.2 5.43,1.04 8.17,1.37 1.52,0.18 3.11,-0.1 4.67,-0.17 0.02,0.27 0.07,0.55 0.12,0.84 z" id="path19"></path>
		<path d="m 442.59,404 c -0.4,0.66 -0.93,0.92 -1.56,-0.4 -1.64,-3.48 0.35,-6.8 4.38,-6.93 3.23,-0.1 6.16,-1.13 9.17,-2.01 5.18,-1.52 10.36,-3.05 15.55,-4.53 1.41,-0.4 2.87,-0.68 4.42,-1.04 -1.74,-0.43 -3.69,-0.39 -4.85,-1.29 -3.67,-2.85 -8.08,-3.87 -12.34,-5.34 -0.44,-0.15 -0.73,-0.67 -1.09,-1.02 0.49,-0.14 0.98,-0.39 1.47,-0.4 4.28,-0.07 8.57,0.53 12.82,-0.42 1.56,-0.35 3.22,-0.28 4.75,-0.68 3.06,-0.8 6.16,-1.6 9.07,-2.77 3.49,-1.41 6.58,-0.96 9.48,1.13 2.67,1.92 5.81,2.66 8.95,2.73 6.08,0.13 12.18,0 18.24,-0.37 3.75,-0.22 7.45,-1.22 11.2,-1.61 4.67,-0.48 7.93,-3.12 11.08,-6.07 2.77,-2.6 5.97,-3.51 9.93,-3.1 3.23,0.33 6.59,-0.06 9.84,-0.52 6.3,-0.9 12.55,-2.08 18.83,-3.15 5.26,-0.89 10.53,-1.77 15.79,-2.68 0.81,-0.14 1.6,-0.41 2.4,-0.59 0.1,-0.02 0.25,0.16 0.67,0.44 -0.77,0.43 -1.35,0.95 -2.02,1.09 -3.97,0.82 -7.95,1.56 -11.94,2.3 -4.45,0.83 -8.89,1.72 -13.37,2.42 -4.41,0.69 -8.84,1.33 -13.29,1.71 -3.16,0.27 -6.37,0.16 -9.54,0.06 -2.93,-0.1 -5.02,1.39 -6.91,3.17 -2.45,2.32 -4.94,4.55 -8.4,5.34 -2.59,0.59 -5.21,1.06 -7.82,1.53 -1.53,0.27 -3.08,0.54 -4.63,0.64 -3.38,0.22 -6.77,0.38 -10.16,0.47 -3.4,0.1 -6.81,0.27 -10.19,0.08 -3.64,-0.2 -7.17,-0.98 -10.22,-3.13 -0.79,-0.56 -1.75,-0.94 -2.68,-1.28 -1.93,-0.7 -3.95,-0.07 -5.46,0.73 -4.31,2.25 -8.94,2.75 -13.65,3.19 -2.97,0.28 -5.94,0.62 -9.08,0.95 1.15,0.44 2.25,0.91 3.4,1.28 1.85,0.61 3.65,1.22 5.01,2.74 0.46,0.52 1.46,0.7 2.25,0.82 3.75,0.56 7.3,-0.46 10.82,-1.48 1.18,-0.34 2.19,-0.46 3.11,0.74 -1.07,1.67 -2.99,1.92 -4.68,2.3 -3.61,0.8 -7.31,1.26 -10.91,2.07 -3.71,0.83 -7.4,1.82 -11.04,2.91 -3.04,0.91 -5.95,2.19 -9,3.08 -1.99,0.58 -4.12,0.67 -6.16,1.13 -1.91,0.43 -2.98,1.62 -2.79,3.1 0.11,0.76 0.63,1.48 1.15,2.66 z" id="path21"></path>
		<path d="m 645.82,322.24 c 0.27,0.18 0.7,0.47 1.15,0.77 -5.2,4.14 -9.04,9.22 -13.29,13.98 -4.88,5.47 -10.34,10.41 -16.38,14.77 -4.24,3.06 -7.9,6.75 -11.02,10.97 -1.15,1.56 -3.56,2.28 -5.42,3.34 -1.87,1.06 -3.74,2.13 -5.68,3.05 -2.6,1.24 -5.29,2.32 -7.91,3.54 -1.36,0.63 -2.68,1.35 -3.93,2.15 -1.03,0.66 -1.64,1.4 -1.29,2.9 0.58,2.52 0.61,2.72 3.29,2.35 1.09,-0.15 2.2,-0.26 3.3,-0.26 1.77,0 1.99,0.61 1.51,2.26 -0.73,2.51 -2.1,4.56 -4.29,6.15 0.07,0.12 0.13,0.24 0.2,0.37 1.38,-0.19 2.76,-0.48 4.15,-0.53 2.2,-0.09 4.4,-0.01 6.61,-0.01 0.82,0 1.7,0.15 2.47,-0.06 5.39,-1.43 10.76,-2.92 16.13,-4.43 0.74,-0.21 1.4,-0.68 2.13,-0.92 0.47,-0.15 1.02,-0.07 1.9,-0.12 -1.87,2.69 -4.49,3.2 -6.91,3.99 -4.45,1.44 -8.84,3.01 -12.61,5.76 -0.98,0.72 -1.44,2.08 -2.2,3.1 -1.1,1.5 -2.26,2.97 -3.45,4.53 -0.74,-0.6 -1.03,-1.1 -0.24,-1.95 1.02,-1.1 2.22,-2.2 2.76,-3.52 1.07,-2.61 3.28,-3.82 5.61,-4.96 1.77,-0.87 3.61,-1.59 5.33,-2.69 -1.41,0.42 -2.83,0.83 -4.23,1.28 -1.32,0.43 -2.59,1.13 -3.94,1.31 -1.25,0.17 -2.58,-0.25 -3.88,-0.29 -1.47,-0.05 -2.96,-0.06 -4.42,0.08 -2.05,0.19 -4.09,0.55 -6.14,0.8 -0.39,0.05 -1,0.01 -1.15,-0.21 -0.18,-0.26 -0.09,-0.85 0.12,-1.14 0.51,-0.7 1.08,-1.41 1.78,-1.92 1.4,-1.02 2.35,-2.22 2.62,-3.93 0.09,-0.55 0.49,-1.06 0.92,-1.93 -1.73,0.12 -3.26,0.13 -4.75,0.36 -2.4,0.37 -3.3,-0.19 -3.68,-2.54 -0.03,-0.21 0.03,-0.5 -0.09,-0.63 -1.76,-1.81 -0.32,-2.78 1.11,-3.6 2.15,-1.23 4.38,-2.34 6.58,-3.49 2.68,-1.4 5.36,-2.82 8.07,-4.19 1.33,-0.67 2.68,-1.32 4.07,-1.85 2.94,-1.13 4.84,-3.33 6.74,-5.61 1.52,-1.83 3.16,-3.61 5.01,-5.13 3.86,-3.18 8.14,-5.93 11.77,-9.32 4.44,-4.16 8.41,-8.78 12.57,-13.22 2.44,-2.61 4.85,-5.24 7.29,-7.85 0.49,-0.51 1.06,-0.94 1.71,-1.51 z" id="path23"></path>
	</g>
</g>
</svg>
