<?xml version="1.0" encoding="UTF-8" standalone="no"?>
<!-- Uploaded to: SVG Repo, www.svgrepo.com, Generator: SVG Repo Mixer Tools -->

<svg
   fill="#000000"
   version="1.1"
   id="Capa_1"
   width="800px"
   height="800px"
   viewBox="0 0 404.774 404.774"
   xml:space="preserve"
   sodipodi:docname="two-way-arrows.svg"
   inkscape:version="1.3 (0e150ed6c4, 2023-07-21)"
   xmlns:inkscape="http://www.inkscape.org/namespaces/inkscape"
   xmlns:sodipodi="http://sodipodi.sourceforge.net/DTD/sodipodi-0.dtd"
   xmlns="http://www.w3.org/2000/svg"
   xmlns:svg="http://www.w3.org/2000/svg"><defs
   id="defs3" /><sodipodi:namedview
   id="namedview3"
   pagecolor="#ffffff"
   bordercolor="#000000"
   borderopacity="0.25"
   inkscape:showpageshadow="2"
   inkscape:pageopacity="0.0"
   inkscape:pagecheckerboard="0"
   inkscape:deskcolor="#d1d1d1"
   inkscape:zoom="1.48875"
   inkscape:cx="400"
   inkscape:cy="400"
   inkscape:window-width="3440"
   inkscape:window-height="1387"
   inkscape:window-x="-8"
   inkscape:window-y="-8"
   inkscape:window-maximized="1"
   inkscape:current-layer="Capa_1" />&#10;<g
   id="g3"
   style="stroke:none;stroke-opacity:1;fill:#000000;fill-opacity:0.30211481">&#10;	<g
   id="g2"
   style="stroke:none;stroke-opacity:1;fill:#000000;fill-opacity:0.30211481">&#10;		<path
   d="M145.76,82.63c-0.612-0.612-1.224-1.224-1.836-1.224c-1.224-9.18-6.12-19.584-8.568-27.54    c-4.896-15.912-9.18-32.436-13.464-48.348c-1.836-7.956-12.24-6.732-14.688,0c-9.792,25.704-18.972,50.796-29.988,75.888    c-1.836,3.672,0.612,6.732,3.672,7.344c0.612,1.224,1.836,2.448,4.284,3.06c8.568,0.612,17.748,1.224,26.316,1.836    c-12.24,37.944-8.568,83.844-7.956,123.012c0.612,50.797,1.836,102.204,5.508,153.612c0.612,7.956,11.628,7.956,12.24,0    c3.06-47.736-0.612-95.472-1.224-143.208c-0.612-44.676,5.508-88.74,5.508-132.804c7.344,1.224,16.524,2.448,20.808-2.448    C148.208,88.75,148.208,85.078,145.76,82.63z M121.892,80.182c-11.016,0.612-22.644,0.612-33.66,1.836    c9.792-15.912,17.748-33.048,25.092-50.184c2.448,8.568,4.896,17.136,6.732,25.704c1.836,6.12,3.06,15.3,6.12,22.644    C124.34,80.182,123.116,80.182,121.892,80.182z"
   id="path1"
   style="stroke:none;stroke-opacity:1;fill:#000000;fill-opacity:0.30211481" />&#10;		<path
   d="M326.912,315.802c-0.611-3.672-5.508-6.12-9.18-4.896c-3.061,1.225-6.732,2.448-10.404,3.672    c18.359-21.42,7.344-80.172,6.121-103.428c-3.061-52.632-6.121-105.876-12.854-157.896c-1.223-7.956-11.627-7.956-12.24,0    c-3.672,45.288,4.285,92.412,7.346,137.088c2.447,37.944,9.791,83.844-0.613,121.176c-0.611,1.836,0,3.672,1.225,5.508    c-5.508,0.612-11.629,0.612-17.137,0c-7.344-1.224-11.016,7.956-6.119,11.628c-17.748,7.956,11.016,61.2,17.135,72.217    c2.449,4.896,11.018,5.508,13.465,0c11.016-25.093,20.195-50.797,23.867-78.337C328.748,319.474,328.136,317.025,326.912,315.802z     M284.683,348.85c-0.611-1.836-3.059-14.076-6.73-18.972c9.18,1.836,22.643,3.06,33.047,0    c-3.061,16.523-8.568,31.823-14.076,47.735C292.027,367.821,288.355,358.642,284.683,348.85z"
   id="path2"
   style="stroke:none;stroke-opacity:1;fill:#000000;fill-opacity:0.30211481" />&#10;	</g>&#10;</g>&#10;</svg>
